<?xml version="1.0" encoding="utf-8"?>
<!-- Generator: Adobe Illustrator 23.0.6, SVG Export Plug-In . SVG Version: 6.00 Build 0)  -->
<svg version="1.1" xmlns="http://www.w3.org/2000/svg" xmlns:xlink="http://www.w3.org/1999/xlink" x="0px" y="0px"
	 viewBox="0 0 434.7 272.7" style="enable-background:new 0 0 434.7 272.7;" xml:space="preserve">
<style type="text/css">
	.st0{fill:none;stroke:#000000;stroke-width:0.1417;}
</style>
<g id="Layer_1">
	<polygon class="st0" points="420.5,258.5 14.2,258.5 14.2,14.2 420.5,14.2 	"/>
	<polygon class="st0" points="197.5,197.5 197.5,210.8 64.9,210.8 64.9,201.7 45.8,201.7 45.8,210.8 43.4,210.8 43.4,218.8 
		45.8,218.8 45.8,236.5 50.7,236.5 50.7,239.9 60,239.9 60,236.5 64.9,236.5 64.9,223.9 197.5,223.9 197.5,237.2 237.2,237.2 
		237.2,223.9 369.8,223.9 369.8,236.5 374.7,236.5 374.7,239.9 384,239.9 384,236.5 388.9,236.5 388.9,218.8 391.3,218.8 
		391.3,210.8 388.9,210.8 388.9,201.7 369.8,201.7 369.8,210.8 237.2,210.8 237.2,197.5 	"/>
	<polygon class="st0" points="177.3,143.5 177.3,156.8 64.9,156.8 64.9,147.7 45.8,147.7 45.8,156.8 43.5,156.8 43.5,164.8 
		45.8,164.8 45.8,182.5 50.7,182.5 50.7,185.9 60,185.9 60,182.5 64.9,182.5 64.9,169.9 177.3,169.9 177.3,183.2 216.9,183.2 
		216.9,169.9 329.3,169.9 329.3,182.5 334.2,182.5 334.2,185.9 343.5,185.9 343.5,182.5 348.4,182.5 348.4,164.8 350.7,164.8 
		350.7,156.8 348.4,156.8 348.4,147.7 329.3,147.7 329.3,156.8 216.9,156.8 216.9,143.5 	"/>
	<polygon class="st0" points="62.5,89.5 62.5,102.8 58.2,102.8 58.2,93.7 39,93.7 39,102.8 36.7,102.8 36.7,110.8 39,110.8 
		39,128.5 43.9,128.5 43.9,131.9 53.3,131.9 53.3,128.5 58.2,128.5 58.2,115.9 62.5,115.9 62.5,129.2 102.2,129.2 102.2,115.9 
		106.5,115.9 106.5,128.5 111.4,128.5 111.4,131.9 120.8,131.9 120.8,128.5 125.6,128.5 125.6,110.8 128,110.8 128,102.8 
		125.6,102.8 125.6,93.7 106.5,93.7 106.5,102.8 102.2,102.8 102.2,89.5 	"/>
	<polygon class="st0" points="35.5,35.5 35.5,75.2 75.2,75.2 75.2,35.5 	"/>
</g>
<g id="Layer_2">
	<rect x="35.5" y="35.5" class="st0" width="39.7" height="39.7"/>
</g>
</svg>
