<?xml version="1.0" encoding="utf-8"?>
<!-- Generator: Adobe Illustrator 23.0.6, SVG Export Plug-In . SVG Version: 6.00 Build 0)  -->
<svg version="1.1" id="Layer_1" xmlns="http://www.w3.org/2000/svg" xmlns:xlink="http://www.w3.org/1999/xlink" x="0px" y="0px"
	 viewBox="0 0 1133.9 566.9" style="enable-background:new 0 0 1133.9 566.9;" xml:space="preserve">
<style type="text/css">
	.st0{fill:none;stroke:#000000;stroke-width:0.1417;}
</style>
<rect x="108" y="47.3" class="st0" width="39.7" height="39.7"/>
<rect x="162" y="47.3" class="st0" width="39.7" height="39.7"/>
<rect x="216" y="33.8" class="st0" width="39.7" height="39.7"/>
<rect x="270" y="27" class="st0" width="39.7" height="39.7"/>
<rect x="324" y="33.8" class="st0" width="39.7" height="39.7"/>
<rect x="378" y="40.5" class="st0" width="39.7" height="39.7"/>
<rect x="432" y="40.5" class="st0" width="39.7" height="39.7"/>
<rect x="918" y="47.3" class="st0" width="39.7" height="39.7"/>
<rect x="864" y="47.3" class="st0" width="39.7" height="39.7"/>
<rect x="810" y="33.8" class="st0" width="39.7" height="39.7"/>
<rect x="756" y="27" class="st0" width="39.7" height="39.7"/>
<rect x="702" y="33.8" class="st0" width="39.7" height="39.7"/>
<rect x="648" y="40.5" class="st0" width="39.7" height="39.7"/>
<rect x="594" y="40.5" class="st0" width="39.7" height="39.7"/>
<rect x="94.5" y="101.3" class="st0" width="39.7" height="39.7"/>
<rect x="162" y="101.3" class="st0" width="39.7" height="39.7"/>
<rect x="216" y="87.8" class="st0" width="39.7" height="39.7"/>
<rect x="270" y="81" class="st0" width="39.7" height="39.7"/>
<rect x="324" y="87.8" class="st0" width="39.7" height="39.7"/>
<rect x="378" y="94.5" class="st0" width="39.7" height="39.7"/>
<rect x="432" y="94.5" class="st0" width="39.7" height="39.7"/>
<rect x="931.5" y="101.3" class="st0" width="39.7" height="39.7"/>
<rect x="864" y="101.3" class="st0" width="39.7" height="39.7"/>
<rect x="810" y="87.8" class="st0" width="39.7" height="39.7"/>
<rect x="756" y="81" class="st0" width="39.7" height="39.7"/>
<rect x="702" y="87.8" class="st0" width="39.7" height="39.7"/>
<rect x="648" y="94.5" class="st0" width="39.7" height="39.7"/>
<rect x="594" y="94.5" class="st0" width="39.7" height="39.7"/>
<rect x="87.7" y="155.2" class="st0" width="39.7" height="39.7"/>
<rect x="162" y="155.2" class="st0" width="39.7" height="39.7"/>
<rect x="216" y="141.8" class="st0" width="39.7" height="39.7"/>
<rect x="270" y="135" class="st0" width="39.7" height="39.7"/>
<rect x="324" y="141.8" class="st0" width="39.7" height="39.7"/>
<rect x="378" y="148.5" class="st0" width="39.7" height="39.7"/>
<rect x="432" y="148.5" class="st0" width="39.7" height="39.7"/>
<rect x="938.2" y="155.2" class="st0" width="39.7" height="39.7"/>
<rect x="864" y="155.2" class="st0" width="39.7" height="39.7"/>
<rect x="810" y="141.8" class="st0" width="39.7" height="39.7"/>
<rect x="756" y="135" class="st0" width="39.7" height="39.7"/>
<rect x="702" y="141.8" class="st0" width="39.7" height="39.7"/>
<rect x="648" y="148.5" class="st0" width="39.7" height="39.7"/>
<rect x="594" y="148.5" class="st0" width="39.7" height="39.7"/>
<rect x="74.3" y="209.2" class="st0" width="39.7" height="39.7"/>
<rect x="162" y="209.2" class="st0" width="39.7" height="39.7"/>
<rect x="216" y="195.8" class="st0" width="39.7" height="39.7"/>
<rect x="270" y="189" class="st0" width="39.7" height="39.7"/>
<rect x="324" y="195.8" class="st0" width="39.7" height="39.7"/>
<rect x="378" y="202.5" class="st0" width="39.7" height="39.7"/>
<rect x="54" y="47.2" class="st0" width="39.7" height="39.7"/>
<rect x="951.8" y="209.2" class="st0" width="39.7" height="39.7"/>
<rect x="864" y="209.2" class="st0" width="39.7" height="39.7"/>
<rect x="810" y="195.8" class="st0" width="39.7" height="39.7"/>
<rect x="756" y="189" class="st0" width="39.7" height="39.7"/>
<rect x="702" y="195.8" class="st0" width="39.7" height="39.7"/>
<rect x="648" y="202.5" class="st0" width="39.7" height="39.7"/>
<rect x="972" y="47.3" class="st0" width="39.7" height="39.7"/>
<rect x="101.3" y="263.3" class="st0" width="39.7" height="39.7"/>
<rect x="162" y="263.3" class="st0" width="39.7" height="39.7"/>
<rect x="216" y="249.8" class="st0" width="39.7" height="39.7"/>
<rect x="270" y="243" class="st0" width="39.7" height="39.7"/>
<rect x="338" y="272.7" transform="matrix(0.5 -0.866 0.866 0.5 -74.4392 456.1458)" class="st0" width="39.7" height="39.7"/>
<rect x="422.3" y="266.8" transform="matrix(0.5 -0.866 0.866 0.5 -27.1915 526.2502)" class="st0" width="39.7" height="39.7"/>
<rect x="458.9" y="311.4" transform="matrix(0.5 -0.866 0.866 0.5 -47.4421 580.2489)" class="st0" width="39.7" height="39.7"/>
<rect x="924.7" y="263.3" class="st0" width="39.7" height="39.7"/>
<rect x="864" y="263.3" class="st0" width="39.7" height="39.7"/>
<rect x="810" y="249.8" class="st0" width="39.7" height="39.7"/>
<rect x="756" y="243" class="st0" width="39.7" height="39.7"/>
<rect x="688" y="272.7" transform="matrix(0.866 -0.5 0.5 0.866 -51.4329 393.1282)" class="st0" width="39.7" height="39.7"/>
<rect x="610.4" y="278.5" transform="matrix(0.866 -0.5 0.5 0.866 -64.7401 355.1165)" class="st0" width="39.7" height="39.7"/>
<rect x="573.8" y="323.1" transform="matrix(0.866 -0.5 0.5 0.866 -91.9181 342.761)" class="st0" width="39.7" height="39.7"/>
</svg>
